<svg width="52" height="52" viewBox="0 0 52 52" fill="none" xmlns="http://www.w3.org/2000/svg">
<path d="M30.3868 6.27297L34.2644 13.3629C35.2738 15.2086 36.7914 16.7261 38.6371 17.7356L45.727 21.6132C49.1948 23.5098 49.1948 28.4902 45.727 30.3868L38.6371 34.2644C36.7914 35.2738 35.2738 36.7914 34.2644 38.6371L30.3868 45.727C28.4902 49.1948 23.5098 49.1948 21.6132 45.727L17.7356 38.6371C16.7261 36.7914 15.2086 35.2738 13.3629 34.2644L6.27297 30.3868C2.80524 28.4902 2.80524 23.5098 6.27297 21.6132L13.3629 17.7356C15.2086 16.7261 16.7261 15.2086 17.7356 13.3629L21.6132 6.27297C23.5098 2.80524 28.4902 2.80524 30.3868 6.27297Z" stroke="#2E2E2E" stroke-width="6"/>
</svg>
